<svg width="47" height="48" viewBox="0 0 47 48" fill="none" xmlns="http://www.w3.org/2000/svg">
<path d="M47.038 38.339L47.0764 20.7144C47.0799 19.0929 45.7687 17.7741 44.1451 17.7705C42.5216 17.767 41.2047 19.0801 41.2011 20.7016L41.1654 37.1101L5.13287 0.920704C3.98969 -0.229345 2.12724 -0.233396 0.979078 0.911669C0.404017 1.4842 0.116451 2.23556 0.114815 2.98754C0.113179 3.73952 0.397474 4.49213 0.970038 5.06716L37.0026 41.2546L20.5931 41.2189C18.9696 41.2154 17.6526 42.5285 17.6491 44.1499C17.6456 45.7714 18.9568 47.0902 20.5803 47.0937L38.206 47.1321C43.0648 47.1427 47.0275 43.1975 47.038 38.339Z" fill="white"/>
</svg>
