<svg width="38" height="38" viewBox="0 0 38 38" fill="none" xmlns="http://www.w3.org/2000/svg">
<path d="M19.0013 0.666992C9.0628 0.666992 0.667969 9.06183 0.667969 19.0003C0.667969 28.9388 9.0628 37.3337 19.0013 37.3337C28.9398 37.3337 37.3346 28.9388 37.3346 19.0003C37.3346 9.06183 28.9398 0.666992 19.0013 0.666992ZM19.0013 9.83366C22.1675 9.83366 24.5013 12.1657 24.5013 15.3337C24.5013 18.5017 22.1675 20.8337 19.0013 20.8337C15.837 20.8337 13.5013 18.5017 13.5013 15.3337C13.5013 12.1657 15.837 9.83366 19.0013 9.83366ZM9.6403 27.749C11.2848 25.329 14.0275 23.7157 17.168 23.7157H20.8346C23.977 23.7157 26.7178 25.329 28.3623 27.749C26.0193 30.257 22.6955 31.8337 19.0013 31.8337C15.3071 31.8337 11.9833 30.257 9.6403 27.749Z" fill="#78A240"/>
</svg>
